<?xml version="1.0" encoding="utf-8"?>
<!-- Generator: Adobe Illustrator 15.0.0, SVG Export Plug-In . SVG Version: 6.00 Build 0)  -->
<!DOCTYPE svg PUBLIC "-//W3C//DTD SVG 1.1//EN" "http://www.w3.org/Graphics/SVG/1.1/DTD/svg11.dtd">
<svg version="1.1" id="Layer_1" xmlns="http://www.w3.org/2000/svg" xmlns:xlink="http://www.w3.org/1999/xlink" x="0px" y="0px"
	 width="224px" height="50px" viewBox="0 0 224 50" enable-background="new 0 0 224 50" xml:space="preserve">
<g>
	<g>
		<path fill="#F7941E" d="M34.558,2.054l-1.574,3.555c-2.565-1.115-5.396-1.734-8.372-1.734c-0.27,0-0.54,0.005-0.807,0.016
			L23.646,0c-3.86,0.146-7.495,1.173-10.71,2.884l1.841,3.43c-2.794,1.482-5.215,3.576-7.082,6.104l-3.143-2.281
			c-2.171,2.951-3.708,6.399-4.41,10.142l3.814,0.705c-0.239,1.267-0.364,2.574-0.364,3.911c0,1.885,0.249,3.713,0.714,5.452
			l-3.749,1.009c0.98,3.669,2.775,7.003,5.179,9.798l2.95-2.54c2.048,2.375,4.618,4.286,7.531,5.557l-1.568,3.577
			c3.048,1.331,6.416,2.072,9.955,2.072c0.318,0,0.636-0.007,0.951-0.019l-0.155-3.902c3.255-0.12,6.322-0.98,9.036-2.419
			l1.831,3.441c3.279-1.744,6.122-4.202,8.323-7.165c0,0-2.177-1.715-2.595-2.039c-1.3,1.375-3.431,2.896-6.748,3.188
			c2.371-1.618,2.785-2.213,4.026-5.31l-0.85-0.645c-3.137,4.27-8.153,7.009-13.806,7.009c-9.504,0-17.209-7.818-17.209-17.461
			c0-6.149,3.133-11.556,7.868-14.667l-0.348-0.646c-0.441-0.868-1.159-2.132-0.421-2.562c0.705-0.365,1.435,0.624,2.022,1.027
			c0.328,0.258,1.018,0.554,1.018,0.554L18.01,8.37c2.035-0.859,4.266-1.333,6.607-1.333c5.277,0,10,2.41,13.156,6.205l5.637-4.667
			C40.998,5.792,37.979,3.549,34.558,2.054z"/>
		<path fill="#F7941E" d="M21.075,19.428c-2.569,0-4.652,2.08-4.652,4.645s2.083,4.646,4.652,4.646c2.568,0,4.651-2.08,4.651-4.646
			S23.644,19.428,21.075,19.428z M21.075,27.558c-1.927,0-3.489-1.56-3.489-3.484s1.562-3.484,3.489-3.484
			c1.926,0,3.488,1.56,3.488,3.484S23.001,27.558,21.075,27.558z"/>
		<g>
			<path fill="#F7941E" d="M22.886,30.867c-0.555,0.146-1.138,0.222-1.738,0.222c-0.062,0-0.122,0-0.183-0.002l-0.027,1.001
				c0,0,0.858,0.179,1.198,0.299c4.214,1.493,3.882,5.781,1.409,5.406c1.346,0.991,0.033,1.348,0.033,1.348
				c5.302,1.272,9.437-1.124,10.052-2.449c-3.51,1.889-6.94-1.182-8.695-5.158c-0.537,0.275-1.107,0.494-1.705,0.647L22.886,30.867z
				"/>
			<path fill="#F7941E" d="M26.692,24.148c0,2.133-1.205,3.985-2.971,4.913l1.214,2.472c0.078-0.04,0.155-0.082,0.231-0.124
				L24.51,30.22c0.571-0.317,1.092-0.71,1.55-1.17l0.957,0.963c0.492-0.491,0.921-1.045,1.278-1.647l-1.171-0.688
				c0.329-0.557,0.583-1.163,0.747-1.806l1.313,0.347c0.169-0.661,0.26-1.354,0.26-2.068l-1.357-0.002
				c0-0.408-0.035-0.808-0.103-1.196l-1.375,0.242C26.664,23.503,26.692,23.823,26.692,24.148z"/>
			<path fill="#F7941E" d="M38.677,19.355c-2.206-2.955-5.241-5.156-5.241-5.156c-8.099-5.886-14.653-3.003-17.997-6.19
				c0.887,2.128,3.72,6.263,3.72,6.263c-3.83-1.776-5.508-0.45-6.444,0.717c-2.579,3.767-5.975,10.872,1.03,19.863
				c0.284-0.948,0.993-2.558,4.578-2.901c0,0,0.427-0.031,0.597-0.029l0.313-1.102c-0.63-0.181-1.225-0.448-1.767-0.788
				l-0.725,1.147c-0.594-0.374-1.138-0.821-1.618-1.327l0.985-0.933c-0.441-0.467-0.819-0.993-1.119-1.569l-1.205,0.624
				c-0.319-0.614-0.564-1.273-0.723-1.966l1.321-0.305c-0.114-0.5-0.175-1.021-0.175-1.555c0-0.124,0.003-0.247,0.009-0.37
				l-1.353-0.073c0.038-0.714,0.166-1.403,0.373-2.059l1.291,0.414c0.197-0.626,0.481-1.214,0.837-1.75l-1.125-0.754
				c0.388-0.581,0.847-1.111,1.365-1.576l0.904,1.007c0.48-0.432,1.021-0.798,1.609-1.083l-0.601-1.212
				c0.624-0.304,1.292-0.533,1.991-0.673l0.26,1.328c0.445-0.09,0.907-0.137,1.379-0.137c0.187,0,0.371,0.007,0.554,0.021
				l0.101-1.349c0.711,0.056,1.398,0.201,2.048,0.425l-0.439,1.28c0.619,0.213,1.198,0.512,1.724,0.881l0.78-1.106
				c0.571,0.401,1.089,0.874,1.542,1.402l-1.027,0.884c0.417,0.489,0.768,1.037,1.038,1.629l1.236-0.558
				c0.285,0.627,0.495,1.297,0.617,1.997l-1.336,0.235l1.393,0.133c7.865,0.866,11.695,3.652,11.866,6.875
				c0.072,2.261-0.718,6.31-2.444,8.96c3.721-1.824,4.694-5.544,4.852-8.134c3.295-1.813,0.559-1.617,3.186-4.67
				C42.398,20.352,39.336,20.238,38.677,19.355z M36.971,20.517c-1.46,0.509-8.159-2.269-8.236-5.448
				C28.67,12.41,38.432,20.008,36.971,20.517z"/>
			<polygon fill="#F7941E" points="27.984,22.952 27.984,22.952 27.984,22.952 			"/>
		</g>
	</g>
	<g>
		<g>
			<path fill="#F7941E" d="M58.994,20.059c0,1.051-0.35,1.835-1.05,2.354c-0.338,0.247-0.685,0.438-1.041,0.574
				c-0.357,0.136-0.704,0.205-1.042,0.205h-1.868c-0.337,0-0.684-0.068-1.041-0.205c-0.357-0.136-0.704-0.327-1.041-0.574
				c-0.688-0.506-1.031-1.291-1.031-2.354v-1.284c0-0.61,0.375-0.915,1.128-0.915c0.778,0,1.167,0.305,1.167,0.915v1.128
				c0,0.338,0.097,0.643,0.292,0.914c0.194,0.273,0.531,0.409,1.012,0.409h0.895c0.48,0,0.817-0.136,1.012-0.409
				c0.195-0.271,0.292-0.576,0.292-0.914V8.561c0-0.623,0.383-0.935,1.148-0.935c0.778,0,1.167,0.312,1.167,0.935V20.059z"/>
			<path fill="#F7941E" d="M75.532,20.059c0,1.051-0.35,1.835-1.051,2.354c-0.337,0.247-0.684,0.438-1.041,0.574
				c-0.357,0.136-0.704,0.205-1.041,0.205h-4.241c-0.338,0-0.685-0.068-1.042-0.205c-0.356-0.136-0.704-0.327-1.041-0.574
				c-0.337-0.259-0.597-0.58-0.778-0.963s-0.272-0.846-0.272-1.391v-9.242c0-0.519,0.091-0.976,0.272-1.372
				c0.182-0.396,0.441-0.716,0.778-0.962h-0.02c0.337-0.221,0.688-0.402,1.051-0.545c0.363-0.143,0.712-0.214,1.051-0.214h4.241
				c0.337,0,0.687,0.071,1.051,0.214c0.363,0.143,0.713,0.324,1.05,0.545h-0.02c0.338,0.247,0.597,0.567,0.778,0.962
				c0.182,0.396,0.272,0.854,0.272,1.372v1.342c0,0.623-0.389,0.934-1.167,0.934c-0.765,0-1.148-0.312-1.148-0.934v-1.167
				c0-0.324-0.097-0.623-0.292-0.896c-0.195-0.272-0.532-0.409-1.012-0.409h-3.269c-0.48,0-0.818,0.136-1.012,0.409
				c-0.195,0.273-0.292,0.571-0.292,0.896v8.911c0,0.338,0.097,0.643,0.292,0.914c0.194,0.273,0.531,0.409,1.012,0.409h3.269
				c0.479,0,0.817-0.136,1.012-0.409c0.195-0.271,0.292-0.576,0.292-0.914v-1.128c0-0.61,0.383-0.915,1.148-0.915
				c0.778,0,1.167,0.305,1.167,0.915V20.059z"/>
			<path fill="#F7941E" d="M104.95,14.28c0.337,0,0.687,0.072,1.05,0.214c0.363,0.143,0.713,0.33,1.051,0.564h-0.02
				c0.337,0.234,0.597,0.552,0.778,0.954c0.182,0.402,0.273,0.863,0.273,1.381v2.666c0,1.051-0.35,1.835-1.051,2.354
				c-0.337,0.247-0.684,0.438-1.041,0.574c-0.357,0.136-0.704,0.205-1.041,0.205h-4.242c-0.337,0-0.685-0.068-1.041-0.205
				c-0.357-0.136-0.705-0.327-1.042-0.574c-0.7-0.519-1.051-1.303-1.051-2.354v-1.284c0-0.61,0.383-0.915,1.148-0.915
				c0.778,0,1.168,0.305,1.168,0.915v1.128c0,0.338,0.097,0.643,0.292,0.914c0.195,0.273,0.532,0.409,1.012,0.409h3.269
				c0.48,0,0.817-0.136,1.012-0.409c0.195-0.271,0.292-0.576,0.292-0.914v-2.354c0-0.324-0.097-0.625-0.292-0.905
				c-0.194-0.278-0.532-0.418-1.012-0.418h-3.755c-0.674,0-1.369-0.247-2.082-0.739c-0.7-0.545-1.051-1.33-1.051-2.354v-2.315
				c0-0.519,0.091-0.976,0.273-1.372c0.182-0.396,0.441-0.716,0.778-0.962h-0.02c0.337-0.221,0.688-0.402,1.051-0.545
				c0.363-0.143,0.713-0.214,1.051-0.214h4.242c0.337,0,0.687,0.071,1.05,0.214s0.713,0.324,1.051,0.545h-0.02
				c0.337,0.247,0.597,0.567,0.778,0.962c0.182,0.396,0.273,0.854,0.273,1.372v1.148c0,0.609-0.389,0.914-1.168,0.914
				c-0.765,0-1.147-0.304-1.147-0.914v-0.973c0-0.324-0.097-0.623-0.292-0.896c-0.194-0.272-0.532-0.409-1.012-0.409h-3.269
				c-0.48,0-0.817,0.136-1.012,0.409c-0.195,0.273-0.292,0.571-0.292,0.896v1.984c0,0.337,0.097,0.639,0.292,0.905
				c0.195,0.266,0.532,0.398,1.012,0.398H104.95z"/>
			<path fill="#F7941E" d="M128.315,16.771h-1.498c-0.221,0-0.393-0.087-0.515-0.262c-0.123-0.175-0.187-0.412-0.187-0.71
				c0-0.661,0.273-0.992,0.817-0.992h2.276c0.48,0,0.817-0.136,1.013-0.408c0.193-0.272,0.291-0.571,0.291-0.895v-2.51
				c0-0.324-0.098-0.623-0.291-0.896c-0.195-0.272-0.532-0.409-1.013-0.409h-4.104v12.686c0,0.623-0.383,0.934-1.146,0.934
				c-0.766,0-1.15-0.311-1.15-0.934V8.892c0-0.467,0.12-0.779,0.361-0.934c0.239-0.156,0.528-0.234,0.866-0.234h5.66
				c0.338,0,0.688,0.071,1.051,0.214s0.714,0.324,1.051,0.545h-0.02c0.339,0.247,0.598,0.567,0.779,0.962
				c0.181,0.396,0.271,0.854,0.271,1.372v2.84c0,1.051-0.35,1.835-1.051,2.354c-0.142,0.104-0.294,0.201-0.457,0.292
				c-0.162,0.091-0.327,0.181-0.496,0.272l3.114,5.136c0.037,0.065,0.077,0.15,0.115,0.253c0.04,0.104,0.06,0.188,0.06,0.253
				c0,0.312-0.221,0.61-0.662,0.896v-0.02c-0.298,0.182-0.552,0.272-0.76,0.272c-0.298,0-0.537-0.149-0.72-0.448l0.021,0.02
				L128.315,16.771z"/>
			<path fill="#F7941E" d="M155.494,22.354c0,0.312-0.109,0.545-0.329,0.701c-0.221,0.155-0.461,0.233-0.722,0.233
				c-0.712,0-1.068-0.311-1.068-0.934V8.541c0-0.622,0.356-0.934,1.068-0.934c0.716,0,1.072,0.312,1.072,0.934v2.919h4.104
				c0.662,0,1.35,0.247,2.063,0.739c0.7,0.493,1.051,1.271,1.051,2.335v5.797c0,1.077-0.319,1.816-0.953,2.219
				c-0.637,0.415-1.362,0.622-2.18,0.622h-2.295c-0.468,0-0.715-0.305-0.739-0.915c0-0.609,0.245-0.915,0.739-0.915h1.946
				c0.479,0,0.822-0.087,1.029-0.263c0.209-0.175,0.311-0.43,0.311-0.769v-5.603c0-0.337-0.102-0.662-0.311-0.973l0.021,0.02
				c-0.17-0.312-0.514-0.467-1.032-0.467h-3.755L155.494,22.354z"/>
			<path fill="#F7941E" d="M185.303,13.288v7.082c0,0.337,0.07,0.597,0.213,0.778c0.145,0.182,0.447,0.272,0.916,0.272h0.505
				c0.506,0,0.745,0.298,0.721,0.895c0,0.61-0.241,0.915-0.721,0.915h-0.643c-0.413,0-0.804-0.055-1.166-0.166
				c-0.365-0.109-0.715-0.269-1.051-0.476v0.019c-0.637-0.415-0.953-1.154-0.953-2.218v-7.102h-0.76
				c-0.467,0-0.714-0.304-0.74-0.915c0-0.609,0.247-0.914,0.74-0.914h0.76V9.378c0-0.623,0.369-0.934,1.108-0.934
				c0.713,0,1.07,0.311,1.07,0.934v2.082h1.615c0.505,0,0.744,0.305,0.72,0.914c0,0.61-0.241,0.915-0.72,0.915H185.303z"/>
			<path fill="#F7941E" d="M194.875,8.93c0,0.415-0.143,0.765-0.43,1.051c-0.285,0.285-0.634,0.428-1.049,0.428
				c-0.416,0-0.77-0.143-1.062-0.428c-0.291-0.286-0.438-0.636-0.438-1.051c0-0.428,0.146-0.785,0.438-1.07
				c0.292-0.286,0.646-0.428,1.062-0.428c0.415,0,0.764,0.143,1.049,0.428C194.732,8.145,194.875,8.502,194.875,8.93z
				 M194.466,22.354c0,0.623-0.356,0.934-1.069,0.934c-0.728,0-1.09-0.311-1.09-0.934V12.315c0-0.623,0.362-0.934,1.09-0.934
				c0.713,0,1.069,0.311,1.069,0.934V22.354z"/>
			<path fill="#F7941E" d="M209.448,20.079c0,1.063-0.352,1.848-1.051,2.354c-0.688,0.493-1.376,0.739-2.063,0.739h-3.268
				c-0.688,0-1.357-0.246-2.006-0.739c-0.311-0.259-0.55-0.587-0.72-0.982c-0.169-0.396-0.253-0.853-0.253-1.372v-5.545
				c0-1.051,0.325-1.829,0.973-2.335c0.325-0.233,0.658-0.418,1.003-0.554c0.343-0.137,0.678-0.204,1.003-0.204h3.268
				c0.312,0,0.655,0.062,1.032,0.185c0.375,0.123,0.726,0.289,1.051,0.496c0.312,0.221,0.561,0.525,0.748,0.915
				c0.188,0.39,0.283,0.85,0.283,1.381v0.973c0,0.623-0.357,0.934-1.071,0.934c-0.713,0-1.07-0.311-1.07-0.934v-0.836
				c0-0.324-0.101-0.619-0.302-0.885c-0.201-0.266-0.542-0.399-1.021-0.399h-2.432c-0.48,0-0.821,0.133-1.022,0.399
				c-0.201,0.266-0.302,0.561-0.302,0.885v5.506c0,0.311,0.101,0.603,0.302,0.875s0.542,0.408,1.022,0.408h2.432
				c0.479,0,0.819-0.136,1.021-0.408s0.302-0.564,0.302-0.875v-0.895c0-0.609,0.357-0.915,1.07-0.915
				c0.714,0,1.071,0.305,1.071,0.915V20.079z"/>
			<path fill="#F7941E" d="M221.12,16.362c0.325,0,0.673,0.076,1.041,0.224c0.371,0.149,0.716,0.334,1.041,0.555h-0.019
				c0.336,0.247,0.597,0.564,0.777,0.954c0.182,0.389,0.273,0.856,0.273,1.401v0.583c0,1.063-0.352,1.848-1.051,2.354
				c-0.339,0.26-0.682,0.447-1.032,0.564c-0.349,0.117-0.693,0.175-1.031,0.175h-3.307c-0.338,0-0.682-0.058-1.031-0.175
				c-0.35-0.117-0.693-0.305-1.032-0.564c-0.698-0.493-1.051-1.277-1.051-2.354v-0.234c0-0.558,0.358-0.83,1.07-0.817
				c0.728,0,1.091,0.272,1.091,0.817v0.214c0,0.311,0.097,0.603,0.291,0.875c0.195,0.272,0.539,0.408,1.031,0.408h2.569
				c0.492,0,0.835-0.136,1.031-0.408c0.194-0.272,0.29-0.564,0.29-0.875v-0.544c0-0.169-0.021-0.331-0.067-0.487
				s-0.12-0.295-0.223-0.418c-0.104-0.123-0.241-0.224-0.409-0.302s-0.377-0.116-0.622-0.116h-2.841
				c-0.662,0-1.356-0.233-2.082-0.701c-0.688-0.441-1.032-1.199-1.032-2.276v-0.662c0-0.519,0.092-0.976,0.273-1.371
				c0.181-0.396,0.44-0.717,0.777-0.963h-0.019c0.324-0.221,0.668-0.402,1.031-0.545c0.362-0.143,0.712-0.214,1.051-0.214h3.112
				c0.338,0,0.684,0.071,1.04,0.214c0.358,0.143,0.704,0.324,1.042,0.545h-0.02c0.337,0.247,0.597,0.567,0.777,0.963
				c0.183,0.396,0.273,0.852,0.273,1.371v0.175c0,0.272-0.091,0.47-0.273,0.593c-0.181,0.124-0.446,0.191-0.797,0.205
				c-0.714,0.013-1.07-0.253-1.07-0.798v-0.156c0-0.324-0.101-0.62-0.302-0.885c-0.199-0.266-0.542-0.399-1.021-0.399h-2.414
				c-0.48,0-0.819,0.133-1.02,0.399c-0.201,0.266-0.303,0.562-0.303,0.885v0.467c0,0.337,0.102,0.642,0.303,0.914
				c0.2,0.272,0.539,0.408,1.02,0.408H221.12z"/>
		</g>
		<g>
			<path fill="#F7941E" d="M85.743,35.791c0.202,0,0.412,0.044,0.63,0.129c0.217,0.085,0.427,0.198,0.63,0.338h-0.012
				c0.202,0.142,0.358,0.331,0.467,0.572c0.109,0.241,0.164,0.519,0.164,0.828v1.601c0,0.63-0.211,1.102-0.631,1.413
				c-0.203,0.146-0.411,0.263-0.624,0.345c-0.215,0.081-0.422,0.121-0.625,0.121h-2.545c-0.202,0-0.41-0.04-0.625-0.121
				c-0.213-0.082-0.422-0.198-0.624-0.345c-0.42-0.312-0.631-0.783-0.631-1.413v-0.77c0-0.367,0.23-0.549,0.689-0.549
				c0.467,0,0.701,0.182,0.701,0.549v0.676c0,0.203,0.059,0.387,0.175,0.55c0.116,0.163,0.318,0.245,0.607,0.245h1.961
				c0.288,0,0.491-0.082,0.607-0.245c0.117-0.163,0.176-0.347,0.176-0.55v-1.411c0-0.196-0.059-0.377-0.176-0.543
				c-0.116-0.168-0.319-0.251-0.607-0.251h-2.253c-0.404,0-0.821-0.149-1.249-0.445c-0.42-0.326-0.631-0.796-0.631-1.411v-1.39
				c0-0.311,0.055-0.585,0.164-0.822c0.109-0.238,0.264-0.432,0.467-0.577h-0.012c0.203-0.134,0.412-0.241,0.63-0.329
				c0.218-0.086,0.428-0.127,0.63-0.127h2.545c0.202,0,0.412,0.041,0.63,0.127c0.217,0.088,0.427,0.195,0.63,0.329h-0.012
				c0.202,0.146,0.358,0.339,0.467,0.577c0.109,0.237,0.164,0.512,0.164,0.822v0.688c0,0.366-0.234,0.549-0.701,0.549
				c-0.459,0-0.688-0.183-0.688-0.549v-0.584c0-0.193-0.059-0.374-0.176-0.537c-0.116-0.163-0.319-0.245-0.607-0.245h-1.961
				c-0.289,0-0.491,0.082-0.607,0.245c-0.117,0.163-0.175,0.344-0.175,0.537v1.191c0,0.202,0.059,0.384,0.175,0.542
				c0.116,0.16,0.318,0.239,0.607,0.239H85.743z"/>
			<path fill="#F7941E" d="M92.863,41.126c-0.241,0-0.471-0.031-0.689-0.099c-0.218-0.066-0.428-0.162-0.63-0.287v0.014
				c-0.381-0.241-0.572-0.686-0.572-1.332V38.85c0-0.318,0.056-0.596,0.169-0.833c0.112-0.238,0.271-0.427,0.473-0.566h-0.012
				c0.194-0.134,0.4-0.232,0.619-0.299c0.218-0.066,0.428-0.1,0.63-0.1h2.581v-1.084c0-0.196-0.061-0.373-0.181-0.532
				c-0.121-0.16-0.325-0.239-0.613-0.239h-1.365c-0.296,0-0.5,0.072-0.613,0.217c-0.113,0.144-0.17,0.313-0.17,0.507v0.093
				c0,0.405-0.217,0.608-0.653,0.608c-0.437,0-0.654-0.203-0.654-0.608v-0.104c0-0.319,0.057-0.588,0.169-0.806
				c0.113-0.219,0.266-0.401,0.461-0.55H91.8c0.203-0.131,0.415-0.241,0.637-0.327c0.222-0.085,0.434-0.127,0.636-0.127h1.775
				c0.194,0,0.403,0.042,0.625,0.127c0.222,0.086,0.43,0.196,0.624,0.327h-0.011c0.202,0.148,0.357,0.341,0.467,0.578
				c0.108,0.237,0.163,0.513,0.163,0.823v4.681c0,0.375-0.214,0.561-0.642,0.561c-0.085,0-0.166-0.004-0.239-0.012
				c-0.074-0.007-0.14-0.028-0.198-0.064c-0.058-0.033-0.105-0.085-0.14-0.151c-0.035-0.065-0.053-0.154-0.053-0.263l-0.011-2.556
				h-2.359c-0.17,0-0.303,0.02-0.396,0.058c-0.093,0.04-0.167,0.102-0.222,0.188c-0.063,0.132-0.107,0.233-0.134,0.309
				c-0.028,0.074-0.041,0.157-0.041,0.25v0.456c0,0.203,0.061,0.355,0.181,0.462c0.121,0.104,0.329,0.158,0.625,0.158h1.307
				c0.288,0,0.433,0.182,0.433,0.547c0,0.156-0.035,0.286-0.106,0.392c-0.069,0.106-0.179,0.157-0.327,0.157H92.863z"/>
			<path fill="#F7941E" d="M101.245,40.636c0,0.188-0.066,0.327-0.199,0.421c-0.132,0.094-0.276,0.14-0.432,0.14
				c-0.428,0-0.642-0.186-0.642-0.561v-8.287c0-0.375,0.214-0.561,0.642-0.561c0.428,0,0.642,0.186,0.642,0.561V34.1h2.463
				c0.397,0,0.81,0.146,1.237,0.442c0.42,0.297,0.631,0.765,0.631,1.401v3.479c0,0.646-0.191,1.091-0.572,1.332
				c-0.381,0.249-0.817,0.372-1.307,0.372h-1.377c-0.28,0-0.429-0.183-0.444-0.549c0-0.365,0.148-0.547,0.444-0.547h1.167
				c0.288,0,0.495-0.054,0.619-0.158c0.125-0.106,0.187-0.259,0.187-0.462v-3.361c0-0.203-0.062-0.396-0.187-0.584l0.011,0.012
				c-0.101-0.188-0.308-0.28-0.618-0.28h-2.253L101.245,40.636z"/>
			<path fill="#F7941E" d="M110.059,39.259c0,0.188,0.06,0.362,0.181,0.526c0.12,0.163,0.324,0.245,0.612,0.245h1.459
				c0.289,0,0.492-0.072,0.613-0.217c0.12-0.145,0.181-0.31,0.181-0.497v-0.128c0-0.365,0.213-0.548,0.642-0.548
				c0.428,0,0.643,0.183,0.643,0.548v0.14c0,0.327-0.054,0.596-0.157,0.806c-0.106,0.211-0.265,0.395-0.474,0.55
				c-0.412,0.294-0.825,0.442-1.237,0.442h-1.961c-0.412,0-0.813-0.148-1.202-0.442c-0.187-0.155-0.331-0.354-0.432-0.59
				c-0.101-0.237-0.151-0.513-0.151-0.823v-3.327c0-0.63,0.194-1.097,0.583-1.401c0.194-0.14,0.395-0.25,0.601-0.332
				c0.208-0.081,0.407-0.123,0.602-0.123h1.961c0.187,0,0.392,0.038,0.618,0.111c0.226,0.074,0.437,0.174,0.63,0.297
				c0.188,0.133,0.337,0.315,0.451,0.549c0.111,0.233,0.169,0.511,0.169,0.829v1.577c0,0.178-0.054,0.337-0.157,0.479
				c-0.106,0.14-0.299,0.209-0.578,0.209h-2.521c-0.281,0-0.429-0.183-0.444-0.548c0-0.366,0.148-0.549,0.444-0.549h1.983
				l-0.011-1.086c0-0.195-0.062-0.371-0.181-0.53c-0.122-0.16-0.325-0.239-0.613-0.239h-1.459c-0.288,0-0.492,0.079-0.612,0.239
				c-0.122,0.159-0.181,0.335-0.181,0.53V39.259z"/>
			<path fill="#F7941E" d="M118.883,40.636c0,0.375-0.215,0.561-0.642,0.561c-0.442,0-0.666-0.186-0.666-0.561v-4.832
				c0-0.638,0.191-1.083,0.572-1.332s0.821-0.372,1.319-0.372h1.332c0.287,0,0.431,0.183,0.431,0.548
				c0.016,0.366-0.129,0.549-0.431,0.549h-1.239c-0.279,0-0.461,0.055-0.547,0.163c-0.088,0.111-0.13,0.261-0.13,0.456V40.636z"/>
			<path fill="#F7941E" d="M133.452,39.96c0.287,0,0.491-0.082,0.606-0.245c0.116-0.163,0.175-0.347,0.175-0.55v-5.347
				c0-0.193-0.059-0.374-0.175-0.537c-0.115-0.163-0.319-0.245-0.606-0.245h-2.731l-0.012,7.611c0,0.171-0.067,0.308-0.199,0.409
				s-0.295,0.151-0.49,0.151c-0.46,0-0.688-0.187-0.688-0.561v-8.089c0-0.281,0.069-0.467,0.215-0.561
				c0.144-0.095,0.316-0.14,0.521-0.14h3.676c0.204,0,0.413,0.041,0.631,0.127c0.219,0.088,0.428,0.195,0.631,0.329h-0.012
				c0.202,0.146,0.357,0.339,0.466,0.577c0.11,0.237,0.163,0.512,0.163,0.822v5.545c0,0.63-0.208,1.102-0.629,1.413
				c-0.203,0.146-0.412,0.263-0.625,0.345c-0.214,0.081-0.421,0.121-0.625,0.121h-1.961c-0.132,0-0.235-0.053-0.31-0.163
				c-0.074-0.109-0.109-0.253-0.109-0.432c0-0.39,0.167-0.583,0.501-0.583H133.452z"/>
			<path fill="#F7941E" d="M139.405,42.76c-0.273,0-0.416-0.182-0.431-0.547c0-0.366,0.142-0.549,0.431-0.549h0.513
				c0.273,0,0.452-0.081,0.538-0.245l0.163-0.432l0.059-0.188l-2.277-5.965v0.012c-0.062-0.188-0.048-0.346,0.042-0.479
				c0.089-0.134,0.228-0.23,0.413-0.293c0.142-0.038,0.253-0.058,0.339-0.058c0.227,0,0.367,0.132,0.42,0.396l0.924,2.301
				l0.781,1.913l1.25-4.189c0.07-0.281,0.233-0.421,0.49-0.421c0.063,0,0.163,0.02,0.304,0.058c0.186,0.056,0.321,0.144,0.402,0.27
				c0.082,0.123,0.1,0.272,0.052,0.442c-0.35,1.192-0.705,2.391-1.068,3.596c-0.36,1.206-0.718,2.401-1.067,3.585
				c-0.039,0.086-0.099,0.173-0.181,0.263c-0.082,0.089-0.189,0.174-0.321,0.256c-0.133,0.082-0.297,0.149-0.49,0.197
				c-0.195,0.052-0.419,0.076-0.678,0.076H139.405z"/>
			<path fill="#F7941E" d="M147.845,40.636c0,0.375-0.214,0.561-0.642,0.561s-0.643-0.186-0.643-0.561v-4.692
				c0-0.319,0.052-0.595,0.152-0.829c0.101-0.233,0.261-0.423,0.479-0.572c0.412-0.296,0.825-0.442,1.237-0.442h1.88
				c0.396,0,0.809,0.146,1.238,0.442c0.42,0.297,0.628,0.765,0.628,1.401v4.692c0,0.375-0.212,0.561-0.64,0.561
				c-0.429,0-0.643-0.186-0.643-0.561v-4.587c0-0.203-0.062-0.396-0.188-0.584l0.011,0.012c-0.101-0.188-0.306-0.28-0.617-0.28
				h-1.459c-0.319,0-0.53,0.093-0.631,0.28c-0.108,0.164-0.164,0.354-0.164,0.572V40.636z"/>
			<path fill="#F7941E" d="M157.195,41.126c-0.241,0-0.471-0.031-0.688-0.099c-0.218-0.066-0.427-0.162-0.63-0.287v0.014
				c-0.383-0.241-0.572-0.686-0.572-1.332V38.85c0-0.318,0.058-0.596,0.169-0.833c0.112-0.238,0.27-0.427,0.474-0.566h-0.012
				c0.194-0.134,0.401-0.232,0.617-0.299c0.219-0.066,0.431-0.1,0.632-0.1h2.58v-1.084c0-0.196-0.062-0.373-0.182-0.532
				c-0.121-0.16-0.324-0.239-0.613-0.239h-1.366c-0.295,0-0.499,0.072-0.611,0.217c-0.114,0.144-0.169,0.313-0.169,0.507v0.093
				c0,0.405-0.219,0.608-0.653,0.608c-0.438,0-0.654-0.203-0.654-0.608v-0.104c0-0.319,0.055-0.588,0.17-0.806
				c0.111-0.219,0.266-0.401,0.459-0.55h-0.011c0.203-0.131,0.413-0.241,0.636-0.327c0.223-0.085,0.434-0.127,0.637-0.127h1.774
				c0.193,0,0.402,0.042,0.626,0.127c0.22,0.086,0.429,0.196,0.622,0.327h-0.011c0.203,0.148,0.357,0.341,0.467,0.578
				c0.108,0.237,0.164,0.513,0.164,0.823v4.681c0,0.375-0.215,0.561-0.643,0.561c-0.085,0-0.165-0.004-0.239-0.012
				c-0.074-0.007-0.141-0.028-0.197-0.064c-0.06-0.033-0.107-0.085-0.142-0.151c-0.035-0.065-0.052-0.154-0.052-0.263l-0.012-2.556
				h-2.358c-0.171,0-0.304,0.02-0.397,0.058c-0.093,0.04-0.167,0.102-0.223,0.188c-0.062,0.132-0.105,0.233-0.132,0.309
				c-0.029,0.074-0.042,0.157-0.042,0.25v0.456c0,0.203,0.061,0.355,0.18,0.462c0.122,0.104,0.329,0.158,0.626,0.158h1.308
				c0.288,0,0.433,0.182,0.433,0.547c0,0.156-0.036,0.286-0.106,0.392c-0.07,0.106-0.179,0.157-0.326,0.157H157.195z"/>
			<path fill="#F7941E" d="M167.925,36.049c0-0.102-0.017-0.201-0.048-0.298c-0.03-0.097-0.07-0.188-0.115-0.274
				c-0.103-0.188-0.312-0.28-0.631-0.28h-0.747c-0.319,0-0.534,0.093-0.643,0.28c-0.093,0.18-0.14,0.369-0.14,0.572v4.623
				c0,0.365-0.215,0.547-0.644,0.547c-0.442,0-0.664-0.182-0.664-0.547v-4.729c0-0.637,0.209-1.104,0.631-1.401
				c0.428-0.296,0.843-0.442,1.248-0.442h1.18c0.179,0,0.377,0.035,0.596,0.104c0.218,0.07,0.427,0.179,0.63,0.327
				c0.194-0.148,0.399-0.257,0.612-0.327c0.215-0.069,0.418-0.104,0.614-0.104h1.166c0.412,0,0.825,0.146,1.236,0.442
				c0.43,0.289,0.643,0.755,0.643,1.401v4.729c0,0.365-0.217,0.547-0.653,0.547c-0.436,0-0.653-0.182-0.653-0.547v-4.623
				c0-0.102-0.012-0.203-0.034-0.304c-0.023-0.101-0.067-0.193-0.13-0.28l0.012,0.012c-0.061-0.102-0.139-0.174-0.232-0.216
				c-0.094-0.044-0.229-0.064-0.41-0.064h-0.734c-0.327,0-0.54,0.093-0.644,0.28c-0.1,0.172-0.149,0.361-0.149,0.572v4.623
				c0,0.365-0.215,0.547-0.643,0.547c-0.437,0-0.653-0.182-0.653-0.547V36.049z"/>
			<path fill="#F7941E" d="M177.59,32.582c0,0.249-0.086,0.46-0.256,0.63c-0.173,0.172-0.382,0.257-0.631,0.257
				s-0.462-0.085-0.637-0.257c-0.175-0.17-0.263-0.381-0.263-0.63c0-0.257,0.088-0.471,0.263-0.643
				c0.175-0.171,0.388-0.257,0.637-0.257s0.458,0.086,0.631,0.257C177.504,32.111,177.59,32.325,177.59,32.582z M177.345,40.636
				c0,0.375-0.214,0.561-0.642,0.561c-0.438,0-0.654-0.186-0.654-0.561v-6.022c0-0.375,0.217-0.561,0.654-0.561
				c0.428,0,0.642,0.186,0.642,0.561V40.636z"/>
			<path fill="#F7941E" d="M186.334,39.271c0,0.638-0.21,1.108-0.631,1.413c-0.412,0.294-0.824,0.442-1.237,0.442h-1.962
				c-0.412,0-0.813-0.148-1.2-0.442c-0.189-0.155-0.333-0.354-0.435-0.59c-0.1-0.237-0.151-0.513-0.151-0.823v-3.327
				c0-0.63,0.195-1.097,0.586-1.401c0.193-0.14,0.393-0.25,0.6-0.332c0.205-0.081,0.407-0.123,0.601-0.123h1.962
				c0.188,0,0.393,0.038,0.618,0.111c0.227,0.074,0.437,0.174,0.631,0.297c0.187,0.133,0.336,0.315,0.45,0.549
				c0.112,0.233,0.169,0.511,0.169,0.829v0.585c0,0.372-0.214,0.56-0.643,0.56s-0.642-0.188-0.642-0.56v-0.503
				c0-0.195-0.061-0.371-0.18-0.53c-0.123-0.16-0.327-0.239-0.614-0.239h-1.459c-0.289,0-0.492,0.079-0.614,0.239
				c-0.119,0.159-0.181,0.335-0.181,0.53v3.304c0,0.188,0.062,0.362,0.181,0.526c0.122,0.163,0.325,0.245,0.614,0.245h1.459
				c0.287,0,0.491-0.082,0.614-0.245c0.119-0.164,0.18-0.339,0.18-0.526v-0.536c0-0.367,0.213-0.549,0.642-0.549
				s0.643,0.182,0.643,0.549V39.271z"/>
			<path fill="#F7941E" d="M193.338,37.041c0.193,0,0.402,0.044,0.625,0.135c0.22,0.089,0.43,0.199,0.623,0.333h-0.011
				c0.203,0.146,0.358,0.338,0.467,0.571s0.163,0.513,0.163,0.84v0.351c0,0.638-0.211,1.108-0.63,1.413
				c-0.201,0.156-0.409,0.268-0.618,0.338c-0.211,0.071-0.418,0.104-0.619,0.104h-1.986c-0.201,0-0.408-0.033-0.616-0.104
				c-0.211-0.07-0.417-0.182-0.62-0.338c-0.42-0.297-0.631-0.768-0.631-1.413v-0.14c0-0.334,0.215-0.498,0.643-0.49
				c0.437,0,0.653,0.163,0.653,0.49v0.128c0,0.188,0.059,0.362,0.177,0.526c0.115,0.163,0.323,0.245,0.618,0.245h1.54
				c0.296,0,0.502-0.082,0.619-0.245c0.117-0.164,0.175-0.339,0.175-0.526v-0.327c0-0.101-0.014-0.197-0.039-0.291
				c-0.028-0.095-0.072-0.178-0.136-0.253c-0.063-0.072-0.144-0.132-0.245-0.18c-0.101-0.046-0.226-0.07-0.374-0.07h-1.704
				c-0.396,0-0.813-0.139-1.248-0.42c-0.412-0.264-0.62-0.72-0.62-1.366v-0.396c0-0.311,0.056-0.586,0.164-0.823
				c0.109-0.237,0.264-0.43,0.467-0.578h-0.011c0.193-0.131,0.4-0.241,0.617-0.327c0.219-0.085,0.43-0.127,0.631-0.127h1.868
				c0.203,0,0.41,0.042,0.624,0.127c0.216,0.086,0.423,0.196,0.626,0.327h-0.012c0.201,0.148,0.357,0.341,0.466,0.578
				c0.11,0.237,0.164,0.513,0.164,0.823v0.105c0,0.164-0.054,0.281-0.164,0.355c-0.108,0.074-0.269,0.115-0.479,0.123
				c-0.427,0.008-0.642-0.151-0.642-0.479v-0.093c0-0.196-0.059-0.373-0.181-0.532c-0.119-0.16-0.324-0.239-0.611-0.239h-1.448
				c-0.289,0-0.492,0.079-0.613,0.239c-0.12,0.159-0.182,0.336-0.182,0.532v0.278c0,0.204,0.062,0.387,0.182,0.55
				c0.121,0.164,0.324,0.245,0.613,0.245H193.338z"/>
		</g>
		<path fill="#F7941E" d="M90.649,7.626c-0.765,0-1.148,0.312-1.148,0.935v5.496h-5.915V8.561c0-0.623-0.389-0.935-1.167-0.935
			c-0.765,0-1.148,0.312-1.148,0.935v13.794c0,0.623,0.383,0.934,1.148,0.934c0.778,0,1.167-0.311,1.167-0.934v-5.982h5.915v5.982
			c0,0.623,0.383,0.934,1.148,0.934c0.779,0,1.168-0.311,1.168-0.934V8.561C91.817,7.938,91.428,7.626,90.649,7.626z"/>
		<path fill="#F7941E" d="M147.733,13.182c-0.183-0.396-0.441-0.717-0.779-0.963h0.02c-0.337-0.221-0.685-0.402-1.039-0.545
			c-0.358-0.143-0.706-0.214-1.042-0.214h-3.114c-0.336,0-0.688,0.071-1.051,0.214c-0.363,0.143-0.706,0.324-1.029,0.545h0.019
			c-0.338,0.247-0.597,0.567-0.779,0.963c-0.18,0.396-0.271,0.852-0.271,1.371v5.526c0,1.077,0.351,1.861,1.051,2.354
			c0.337,0.26,0.68,0.447,1.032,0.564c0.279,0.093,0.555,0.147,0.826,0.165c0.002,0.001,0.004,0.003,0.004,0.004
			c0.027,0.001,0.054,0.001,0.077,0.004h0.08c0.01,0,0.02,0.001,0.029,0.001c0.005,0,0.011-0.001,0.017-0.001
			c0.002,0,0.004,0,0.006,0c0,0,0.002,0,0.004,0c0.006,0,0.01,0.001,0.016,0.001c0,0,0-0.001,0-0.001h0.176
			c0.592,0,0.888-0.306,0.888-0.918c0-0.584-0.273-0.886-0.813-0.912c-0.002,0-0.002,0-0.002,0c-0.44-0.014-0.758-0.147-0.947-0.405
			c-0.202-0.272-0.303-0.564-0.303-0.875v-5.487c0-0.324,0.101-0.62,0.303-0.885c0.201-0.266,0.54-0.399,1.022-0.399h2.41
			c0.48,0,0.821,0.133,1.022,0.399s0.302,0.562,0.302,0.885v5.487c0,0.311-0.101,0.603-0.302,0.875
			c-0.171,0.233-0.446,0.365-0.823,0.399h-0.087c-0.579,0-0.87,0.306-0.87,0.917c0,0.612,0.291,0.918,0.87,0.918h0.191
			c0.002,0.001,0.002,0.001,0.004,0.002c0.014-0.001,0.027-0.001,0.042-0.002l0,0c0.008,0,0.016-0.001,0.023-0.001
			s0.015,0.001,0.022,0.001h0.004c0.008,0,0.016-0.001,0.023-0.001c0.003,0,0.008,0,0.014,0l0,0c0.002,0,0.006,0,0.008,0h0.064
			c0.002,0,0.004,0,0.006,0c0.021-0.003,0.044-0.006,0.067-0.008c0,0,0-0.001,0-0.002c0.611-0.048,1.221-0.287,1.831-0.725
			c0.701-0.506,1.051-1.291,1.051-2.354v-5.526C148.005,14.034,147.914,13.577,147.733,13.182z"/>
		<path fill="#F7941E" d="M177.111,13.182c-0.18-0.396-0.44-0.717-0.777-0.963h0.02c-0.339-0.221-0.684-0.402-1.041-0.545
			c-0.358-0.143-0.703-0.214-1.042-0.214h-3.112c-0.337,0-0.688,0.071-1.051,0.214c-0.362,0.143-0.706,0.324-1.031,0.545h0.019
			c-0.335,0.247-0.596,0.567-0.777,0.963c-0.182,0.396-0.273,0.852-0.273,1.371v5.526c0,1.077,0.353,1.861,1.051,2.354
			c0.339,0.26,0.683,0.447,1.032,0.564c0.281,0.093,0.557,0.147,0.828,0.165c0,0.001,0.002,0.003,0.004,0.004
			c0.027,0.001,0.052,0.001,0.078,0.004h0.077c0.01,0,0.02,0.001,0.029,0.001c0.006,0,0.011-0.001,0.019-0.001c0,0,0.002,0,0.004,0
			s0.004,0,0.004,0c0.006,0,0.01,0.001,0.016,0.001c0,0,0-0.001,0-0.001h0.176c0.594,0,0.888-0.306,0.888-0.918
			c0-0.584-0.273-0.886-0.813-0.912v0c-0.44-0.014-0.758-0.147-0.947-0.405c-0.201-0.272-0.303-0.564-0.303-0.875v-5.487
			c0-0.324,0.102-0.62,0.303-0.885c0.199-0.266,0.54-0.399,1.021-0.399h2.412c0.479,0,0.821,0.133,1.021,0.399
			c0.202,0.266,0.302,0.562,0.302,0.885v5.487c0,0.311-0.1,0.603-0.302,0.875c-0.171,0.233-0.446,0.365-0.82,0.399h-0.09
			c-0.579,0-0.868,0.306-0.868,0.917c0,0.612,0.289,0.918,0.868,0.918h0.193c0,0.001,0.002,0.001,0.002,0.002
			c0.014-0.001,0.029-0.001,0.042-0.002l0,0c0.008,0,0.016-0.001,0.025-0.001c0.008,0,0.015,0.001,0.022,0.001h0.002
			c0.008,0,0.016-0.001,0.023-0.001c0.006,0,0.009,0,0.015,0l0,0c0.004,0,0.006,0,0.008,0h0.065c0,0,0.002,0,0.004,0
			c0.023-0.003,0.044-0.006,0.069-0.008c0,0,0-0.001,0-0.002c0.61-0.048,1.22-0.287,1.831-0.725
			c0.699-0.506,1.051-1.291,1.051-2.354v-5.526C177.385,14.034,177.294,13.577,177.111,13.182z"/>
	</g>
</g>
</svg>
